<svg width="245" height="206" viewBox="0 0 245 206" fill="none" xmlns="http://www.w3.org/2000/svg">
<g filter="url(#filter0_d_175_74788)">
<path d="M29.3456 66.9942C15.7728 42.1754 2.33881 50.0177 4.16778 68.9133C4.50519 122.206 18.4604 143.901 66.6087 178.259V197.922H115.957C112.936 153.32 122.121 133.329 74.6655 85.6985C60.566 75.1475 40.2902 62.8001 46.4665 87.1373C52.4917 98.8322 56.4457 104.618 64.2001 109.678C71.0748 122.731 66.4651 125.491 53.0127 119.271C44.5018 107.451 44.6573 110.198 33.8776 97.6893C32.7277 80.8307 31.9839 72.2436 29.3456 66.9942Z" fill="white"/>
</g>
<g filter="url(#filter1_d_175_74788)">
<path d="M215.655 66.9942C229.228 42.1754 242.662 50.0177 240.833 68.9133C240.496 122.206 226.541 143.901 178.392 178.259V197.922H129.044C132.065 153.32 122.88 133.329 170.335 85.6985C184.435 75.1475 204.711 62.8001 198.534 87.1373C192.509 98.8322 188.555 104.618 180.801 109.678C173.926 122.731 178.536 125.491 191.988 119.271C200.499 107.451 200.344 110.198 211.123 97.6893C212.273 80.8307 213.017 72.2436 215.655 66.9942Z" fill="white"/>
</g>
<g filter="url(#filter2_d_175_74788)">
<path d="M118.729 66.7145L67.2489 17.9786L85.7418 66.7145H118.729Z" stroke="white" stroke-width="4" stroke-linecap="round" shape-rendering="crispEdges"/>
<path d="M90.2401 13.6784L84.2424 26.579L93.7387 35.6573L100.236 24.6678L90.2401 13.6784Z" stroke="white" stroke-width="4" stroke-linecap="round" shape-rendering="crispEdges"/>
<path d="M118.729 4.6001L97.7372 39.9575L125.726 66.7145H157.214L118.729 4.6001Z" stroke="white" stroke-width="4" stroke-linecap="round" shape-rendering="crispEdges"/>
<path d="M148.218 14.1562L138.222 25.6234L144.219 35.1795L154.216 26.579L148.218 14.1562Z" stroke="white" stroke-width="4" stroke-linecap="round" shape-rendering="crispEdges"/>
<path d="M171.209 17.5008L147.218 40.9131L159.214 60.503L171.209 17.5008Z" stroke="white" stroke-width="4" stroke-linecap="round" shape-rendering="crispEdges"/>
</g>
<g filter="url(#filter3_d_175_74788)">
<path d="M155.356 51.3601C154.395 62.0336 153.292 64.46 146.49 65.6673C153.956 67.7143 155.103 71.8038 156.243 79.9746C156.72 70.1207 157.53 66.2737 164.665 65.6673C156.469 64.2682 155.678 60.6673 155.356 51.3601Z" fill="#B2C2FA"/>
</g>
<g filter="url(#filter4_d_175_74788)">
<path d="M69.2701 8.78735C68.5782 16.3369 67.7838 18.0531 62.8867 18.9071C68.2618 20.3549 69.0876 23.2475 69.9084 29.0269C70.2521 22.057 70.8352 19.336 75.9726 18.9071C70.0715 17.9174 69.5016 15.3705 69.2701 8.78735Z" fill="#98BBFF"/>
</g>
<defs>
<filter id="filter0_d_175_74788" x="0" y="51.3601" width="119.957" height="154.562" filterUnits="userSpaceOnUse" color-interpolation-filters="sRGB">
<feFlood flood-opacity="0" result="BackgroundImageFix"/>
<feColorMatrix in="SourceAlpha" type="matrix" values="0 0 0 0 0 0 0 0 0 0 0 0 0 0 0 0 0 0 127 0" result="hardAlpha"/>
<feOffset dy="4"/>
<feGaussianBlur stdDeviation="2"/>
<feComposite in2="hardAlpha" operator="out"/>
<feColorMatrix type="matrix" values="0 0 0 0 0 0 0 0 0 0 0 0 0 0 0 0 0 0 0.25 0"/>
<feBlend mode="normal" in2="BackgroundImageFix" result="effect1_dropShadow_175_74788"/>
<feBlend mode="normal" in="SourceGraphic" in2="effect1_dropShadow_175_74788" result="shape"/>
</filter>
<filter id="filter1_d_175_74788" x="125.044" y="51.3601" width="119.957" height="154.562" filterUnits="userSpaceOnUse" color-interpolation-filters="sRGB">
<feFlood flood-opacity="0" result="BackgroundImageFix"/>
<feColorMatrix in="SourceAlpha" type="matrix" values="0 0 0 0 0 0 0 0 0 0 0 0 0 0 0 0 0 0 127 0" result="hardAlpha"/>
<feOffset dy="4"/>
<feGaussianBlur stdDeviation="2"/>
<feComposite in2="hardAlpha" operator="out"/>
<feColorMatrix type="matrix" values="0 0 0 0 0 0 0 0 0 0 0 0 0 0 0 0 0 0 0.25 0"/>
<feBlend mode="normal" in2="BackgroundImageFix" result="effect1_dropShadow_175_74788"/>
<feBlend mode="normal" in="SourceGraphic" in2="effect1_dropShadow_175_74788" result="shape"/>
</filter>
<filter id="filter2_d_175_74788" x="61.379" y="0.743896" width="117.754" height="75.9705" filterUnits="userSpaceOnUse" color-interpolation-filters="sRGB">
<feFlood flood-opacity="0" result="BackgroundImageFix"/>
<feColorMatrix in="SourceAlpha" type="matrix" values="0 0 0 0 0 0 0 0 0 0 0 0 0 0 0 0 0 0 127 0" result="hardAlpha"/>
<feOffset dy="4"/>
<feGaussianBlur stdDeviation="2"/>
<feComposite in2="hardAlpha" operator="out"/>
<feColorMatrix type="matrix" values="0 0 0 0 0 0 0 0 0 0 0 0 0 0 0 0 0 0 0.25 0"/>
<feBlend mode="normal" in2="BackgroundImageFix" result="effect1_dropShadow_175_74788"/>
<feBlend mode="normal" in="SourceGraphic" in2="effect1_dropShadow_175_74788" result="shape"/>
</filter>
<filter id="filter3_d_175_74788" x="142.49" y="51.3601" width="26.1748" height="36.6145" filterUnits="userSpaceOnUse" color-interpolation-filters="sRGB">
<feFlood flood-opacity="0" result="BackgroundImageFix"/>
<feColorMatrix in="SourceAlpha" type="matrix" values="0 0 0 0 0 0 0 0 0 0 0 0 0 0 0 0 0 0 127 0" result="hardAlpha"/>
<feOffset dy="4"/>
<feGaussianBlur stdDeviation="2"/>
<feComposite in2="hardAlpha" operator="out"/>
<feColorMatrix type="matrix" values="0 0 0 0 0 0 0 0 0 0 0 0 0 0 0 0 0 0 0.25 0"/>
<feBlend mode="normal" in2="BackgroundImageFix" result="effect1_dropShadow_175_74788"/>
<feBlend mode="normal" in="SourceGraphic" in2="effect1_dropShadow_175_74788" result="shape"/>
</filter>
<filter id="filter4_d_175_74788" x="58.8867" y="8.78735" width="21.0859" height="28.2395" filterUnits="userSpaceOnUse" color-interpolation-filters="sRGB">
<feFlood flood-opacity="0" result="BackgroundImageFix"/>
<feColorMatrix in="SourceAlpha" type="matrix" values="0 0 0 0 0 0 0 0 0 0 0 0 0 0 0 0 0 0 127 0" result="hardAlpha"/>
<feOffset dy="4"/>
<feGaussianBlur stdDeviation="2"/>
<feComposite in2="hardAlpha" operator="out"/>
<feColorMatrix type="matrix" values="0 0 0 0 0 0 0 0 0 0 0 0 0 0 0 0 0 0 0.25 0"/>
<feBlend mode="normal" in2="BackgroundImageFix" result="effect1_dropShadow_175_74788"/>
<feBlend mode="normal" in="SourceGraphic" in2="effect1_dropShadow_175_74788" result="shape"/>
</filter>
</defs>
</svg>
