<svg width="36" height="33" viewBox="0 0 36 33" fill="none" xmlns="http://www.w3.org/2000/svg">
<path d="M28.8 19.6115H14.715V17.1652H28.8V19.6115ZM28.8 14.3111H7.2V11.8648H28.8V14.3111ZM28.8 9.01071H7.2V6.56436H28.8V9.01071ZM36 32.618V2.44635C36 1.79399 35.73 1.22317 35.19 0.733904C34.65 0.244635 34.02 0 33.3 0H2.7C1.98 0 1.35 0.244635 0.809998 0.733904C0.27 1.22317 0 1.79399 0 2.44635V23.648C0 24.3004 0.27 24.8712 0.809998 25.3605C1.35 25.8497 1.98 26.0944 2.7 26.0944H28.8L36 32.618ZM29.97 23.648H2.7V2.44635H33.3V26.9098L29.97 23.648Z" fill="white"/>
</svg>
