<svg width="47" height="45" viewBox="0 0 47 45" fill="none" xmlns="http://www.w3.org/2000/svg">
<path d="M43.896 0.199951H3.10433C2.43576 0.199951 1.79458 0.454915 1.32183 0.908753C0.849083 1.36259 0.583496 1.97813 0.583496 2.61995V41.7799C0.583496 42.0977 0.6487 42.4124 0.775383 42.706C0.902067 42.9996 1.08775 43.2664 1.32183 43.4911C1.55591 43.7159 1.83381 43.8941 2.13965 44.0157C2.44549 44.1374 2.77329 44.1999 3.10433 44.1999H25.0585V27.1499H19.1002V20.5499H25.0585V15.5999C24.9351 14.4378 25.078 13.2638 25.4772 12.1603C25.8765 11.0568 26.5223 10.0506 27.3696 9.21206C28.2168 8.37356 29.2449 7.72316 30.3816 7.30647C31.5184 6.88979 32.7364 6.7169 33.9502 6.79995C35.7338 6.78941 37.5166 6.87756 39.2897 7.06395V13.004H35.646C32.7585 13.004 32.2085 14.3239 32.2085 16.2379V20.484H39.0835L38.1897 27.0839H32.2085V44.1999H43.896C44.227 44.1999 44.5548 44.1374 44.8607 44.0157C45.1665 43.8941 45.4444 43.7159 45.6785 43.4911C45.9126 43.2664 46.0983 42.9996 46.2249 42.706C46.3516 42.4124 46.4168 42.0977 46.4168 41.7799V2.61995C46.4168 2.30215 46.3516 1.98747 46.2249 1.69386C46.0983 1.40025 45.9126 1.13347 45.6785 0.908753C45.4444 0.684035 45.1665 0.505779 44.8607 0.384163C44.5548 0.262547 44.227 0.199951 43.896 0.199951V0.199951Z" fill="white"/>
</svg>
