<svg width="46" height="45" viewBox="0 0 46 45" fill="none" xmlns="http://www.w3.org/2000/svg">
<path d="M23.0002 16.744C21.8761 16.744 20.7773 17.0639 19.8427 17.6635C18.9081 18.263 18.1796 19.1151 17.7494 20.112C17.3193 21.109 17.2067 22.206 17.426 23.2644C17.6453 24.3227 18.1866 25.2949 18.9814 26.0579C19.7763 26.821 20.7889 27.3406 21.8914 27.5511C22.9939 27.7616 24.1366 27.6536 25.1751 27.2406C26.2136 26.8277 27.1012 26.1284 27.7257 25.2311C28.3502 24.3339 28.6835 23.279 28.6835 22.1999C28.6835 21.4835 28.5365 20.774 28.2509 20.112C27.9653 19.4501 27.5466 18.8486 27.0189 18.342C26.4911 17.8353 25.8646 17.4335 25.1751 17.1593C24.4855 16.8851 23.7465 16.744 23.0002 16.744V16.744ZM45.7564 11.354C45.7444 9.65502 45.4185 7.97161 44.7939 6.38195C44.3339 5.21872 43.6222 4.16236 42.7058 3.28256C41.7893 2.40276 40.6889 1.71953 39.4772 1.27795C37.8214 0.678371 36.0678 0.365525 34.2981 0.353951C31.3418 0.199951 30.471 0.199951 23.0002 0.199951C15.5293 0.199951 14.6585 0.199951 11.7022 0.353951C9.93253 0.365525 8.17897 0.678371 6.52308 1.27795C5.31138 1.71953 4.211 2.40276 3.29455 3.28256C2.37809 4.16236 1.66639 5.21872 1.20641 6.38195C0.581851 7.97161 0.255969 9.65502 0.243913 11.354C0.0834959 14.192 0.0834961 15.0279 0.0834961 22.1999C0.0834961 29.3719 0.0834959 30.2079 0.243913 33.0459C0.26858 34.7509 0.594021 36.4394 1.20641 38.0399C1.66435 39.1979 2.37546 40.2481 3.29183 41.1199C4.20436 42.005 5.3071 42.6883 6.52308 43.1219C8.17897 43.7215 9.93253 44.0344 11.7022 44.0459C14.6585 44.1999 15.5293 44.1999 23.0002 44.1999C30.471 44.1999 31.3418 44.1999 34.2981 44.0459C36.0678 44.0344 37.8214 43.7215 39.4772 43.1219C40.6932 42.6883 41.796 42.005 42.7085 41.1199C43.6249 40.2481 44.336 39.1979 44.7939 38.0399C45.4179 36.4425 45.7437 34.752 45.7564 33.0459C45.9168 30.2079 45.9168 29.3719 45.9168 22.1999C45.9168 15.0279 45.9168 14.192 45.7564 11.354V11.354ZM39.9356 28.9539C39.862 30.3116 39.5602 31.6489 39.0418 32.914C38.5969 33.9693 37.9356 34.9279 37.097 35.7329C36.2585 36.5379 35.2599 37.1729 34.1606 37.5999C32.8303 38.0699 31.4295 38.3299 30.0127 38.3699C28.2022 38.3699 27.721 38.3699 23.0002 38.3699C18.2793 38.3699 17.7981 38.3699 15.9877 38.3699C14.5708 38.3299 13.17 38.0699 11.8397 37.5999C10.7033 37.1945 9.67705 36.5477 8.83766 35.7079C8.00732 34.9187 7.36606 33.9653 6.9585 32.914C6.46706 31.6382 6.20364 30.2919 6.17933 28.9319C6.17933 27.1939 6.17933 26.7319 6.17933 22.1999C6.17933 17.6679 6.17933 17.2059 6.17933 15.4679C6.20364 14.108 6.46706 12.7617 6.9585 11.486C7.38081 10.395 8.05454 9.40976 8.92933 8.60395C9.75509 7.81112 10.7472 7.19616 11.8397 6.79995C13.17 6.33004 14.5708 6.07001 15.9877 6.02995V6.02995C17.7981 6.02995 18.2793 6.02995 23.0002 6.02995C27.721 6.02995 28.2022 6.02995 30.0127 6.02995C31.4295 6.07001 32.8303 6.33004 34.1606 6.79995C35.297 7.20537 36.3233 7.85215 37.1627 8.69195C37.993 9.4812 38.6343 10.4346 39.0418 11.486C39.5313 12.763 39.8022 14.1078 39.8439 15.4679C39.8439 17.2059 39.8439 17.6679 39.8439 22.1999C39.8439 26.7319 40.0043 27.1939 39.9356 28.9319V28.9539ZM36.2689 12.586C35.9961 11.8753 35.5659 11.23 35.008 10.6944C34.4501 10.1589 33.7779 9.74589 33.0377 9.48395C32.0212 9.14572 30.9507 8.98189 29.8752 8.99995C28.0877 8.99995 27.5835 8.99995 23.0002 8.99995C18.4168 8.99995 17.9127 8.99995 16.1252 8.99995C15.0441 9.01009 13.9734 9.20374 12.9627 9.57195C12.2338 9.82199 11.5686 10.2181 11.0115 10.734C10.4544 11.2499 10.018 11.8737 9.73141 12.5639C9.39861 13.5438 9.23602 14.5695 9.25016 15.5999C9.25016 17.3159 9.25016 17.7999 9.25016 22.1999C9.25016 26.5999 9.25016 27.0839 9.25016 28.7999C9.27288 29.8366 9.47422 30.8624 9.846 31.8359C10.1189 32.5466 10.549 33.1919 11.1069 33.7275C11.6648 34.263 12.337 34.676 13.0772 34.938C14.055 35.2832 15.084 35.4763 16.1252 35.5099V35.5099C17.9127 35.5099 18.4168 35.5099 23.0002 35.5099C27.5835 35.5099 28.0877 35.5099 29.8752 35.5099C30.9562 35.4998 32.0269 35.3062 33.0377 34.938C33.7779 34.676 34.4501 34.263 35.008 33.7275C35.5659 33.1919 35.9961 32.5466 36.2689 31.8359C36.6525 30.8656 36.8542 29.8378 36.8647 28.7999C36.8647 27.0839 36.8647 26.5999 36.8647 22.1999C36.8647 17.7999 36.8647 17.3159 36.8647 15.5999C36.8654 14.5611 36.6633 13.5313 36.2689 12.5639V12.586ZM23.0002 30.6039C21.8516 30.604 20.7144 30.3864 19.6536 29.9638C18.5927 29.5412 17.6292 28.9218 16.8181 28.1411C16.007 27.3605 15.3644 26.4338 14.927 25.4144C14.4895 24.3949 14.2659 23.3025 14.2689 22.1999V22.1999C14.2689 20.5369 14.7829 18.9112 15.7459 17.5287C16.7088 16.1462 18.0774 15.069 19.6783 14.4336C21.2793 13.7982 23.0406 13.633 24.7394 13.9591C26.4381 14.2851 27.9979 15.0877 29.2213 16.2652C30.4447 17.4428 31.2766 18.9423 31.6118 20.5739C31.947 22.2056 31.7704 23.8961 31.1043 25.4313C30.4382 26.9665 29.3126 28.2775 27.8699 29.1983C26.4273 30.1191 24.7325 30.6083 23.0002 30.6039V30.6039ZM32.1668 15.446C31.6602 15.3945 31.1914 15.1648 30.8507 14.8013C30.51 14.4377 30.3214 13.966 30.3214 13.4769C30.3214 12.9879 30.51 12.5162 30.8507 12.1526C31.1914 11.7891 31.6602 11.5594 32.1668 11.5079V11.5079C32.6734 11.5594 33.1422 11.7891 33.483 12.1526C33.8237 12.5162 34.0122 12.9879 34.0122 13.4769C34.0122 13.966 33.8237 14.4377 33.483 14.8013C33.1422 15.1648 32.6734 15.3945 32.1668 15.446Z" fill="white"/>
</svg>
