<svg width="1440" height="1024" viewBox="0 0 1440 1024" fill="none" xmlns="http://www.w3.org/2000/svg">
<g clip-path="url(#clip0_228_74586)">
<rect width="1440" height="1024" fill="white"/>
<g filter="url(#filter0_dd_228_74586)">
<path d="M432.588 870.527C421.626 931.586 351.066 960.715 300.223 925.171L152.271 821.738C97.2233 783.255 106.454 699.136 168.537 673.506L348.388 599.257C410.471 573.627 476.354 626.736 464.486 692.845L432.588 870.527Z" fill="#98BBFF"/>
</g>
<g filter="url(#filter1_dd_228_74586)">
<path d="M1235.96 593.347C1224.5 653.514 1155.08 682.17 1104.51 647.615L820.907 453.829C765.112 415.705 773.963 330.867 836.425 305.08L1184.34 161.449C1246.8 135.663 1312.92 189.55 1300.27 255.931L1235.96 593.347Z" fill="#98BBFF"/>
</g>
<g filter="url(#filter2_dd_228_74586)">
<ellipse cx="121.5" cy="129.5" rx="212.5" ry="203.5" fill="#98BBFF"/>
</g>
<path d="M912.098 375.024C912.722 375.336 913.082 375.828 913.178 376.5C913.298 377.172 913.13 377.784 912.674 378.336C912.362 378.768 911.954 379.008 911.45 379.056C910.97 379.104 910.478 379.008 909.974 378.768C909.398 378.504 908.786 378.3 908.138 378.156C907.514 378.012 906.854 377.94 906.158 377.94C904.862 377.94 903.698 378.144 902.666 378.552C901.658 378.96 900.794 379.548 900.074 380.316C899.354 381.06 898.802 381.948 898.418 382.98C898.058 384.012 897.878 385.152 897.878 386.4C897.878 387.864 898.082 389.136 898.49 390.216C898.922 391.296 899.51 392.196 900.254 392.916C900.998 393.636 901.874 394.176 902.882 394.536C903.89 394.872 904.982 395.04 906.158 395.04C906.806 395.04 907.454 394.98 908.102 394.86C908.75 394.74 909.374 394.524 909.974 394.212C910.478 393.972 910.97 393.888 911.45 393.96C911.954 394.032 912.374 394.284 912.71 394.716C913.19 395.316 913.358 395.94 913.214 396.588C913.094 397.212 912.734 397.668 912.134 397.956C911.51 398.268 910.862 398.532 910.19 398.748C909.542 398.94 908.882 399.084 908.21 399.18C907.538 399.3 906.854 399.36 906.158 399.36C904.43 399.36 902.786 399.084 901.226 398.532C899.69 397.98 898.31 397.164 897.086 396.084C895.886 395.004 894.938 393.66 894.242 392.052C893.546 390.42 893.198 388.536 893.198 386.4C893.198 384.552 893.51 382.848 894.134 381.288C894.782 379.728 895.682 378.384 896.834 377.256C898.01 376.104 899.39 375.216 900.974 374.592C902.558 373.944 904.286 373.62 906.158 373.62C907.214 373.62 908.246 373.74 909.254 373.98C910.262 374.22 911.21 374.568 912.098 375.024ZM918.828 399C918.204 399 917.688 398.796 917.28 398.388C916.872 397.956 916.668 397.428 916.668 396.804V381.936C916.668 381.312 916.872 380.796 917.28 380.388C917.688 379.956 918.204 379.74 918.828 379.74C919.452 379.74 919.968 379.956 920.376 380.388C920.784 380.796 920.988 381.312 920.988 381.936V385.32L920.736 382.908C921 382.332 921.336 381.828 921.744 381.396C922.176 380.94 922.656 380.568 923.184 380.28C923.712 379.968 924.276 379.74 924.876 379.596C925.476 379.452 926.076 379.38 926.676 379.38C927.396 379.38 927.996 379.584 928.476 379.992C928.98 380.4 929.232 380.88 929.232 381.432C929.232 382.224 929.028 382.8 928.62 383.16C928.212 383.496 927.768 383.664 927.288 383.664C926.832 383.664 926.412 383.58 926.028 383.412C925.668 383.244 925.248 383.16 924.768 383.16C924.336 383.16 923.892 383.268 923.436 383.484C923.004 383.676 922.596 383.988 922.212 384.42C921.852 384.852 921.552 385.392 921.312 386.04C921.096 386.664 920.988 387.408 920.988 388.272V396.804C920.988 397.428 920.784 397.956 920.376 398.388C919.968 398.796 919.452 399 918.828 399ZM936.346 396.804C936.346 397.428 936.142 397.956 935.734 398.388C935.326 398.796 934.81 399 934.186 399C933.562 399 933.046 398.796 932.638 398.388C932.23 397.956 932.026 397.428 932.026 396.804V381.936C932.026 381.312 932.23 380.796 932.638 380.388C933.046 379.956 933.562 379.74 934.186 379.74C934.81 379.74 935.326 379.956 935.734 380.388C936.142 380.796 936.346 381.312 936.346 381.936V396.804ZM934.15 377.4C933.334 377.4 932.758 377.268 932.422 377.004C932.086 376.74 931.918 376.272 931.918 375.6V374.916C931.918 374.22 932.098 373.752 932.458 373.512C932.842 373.248 933.418 373.116 934.186 373.116C935.026 373.116 935.614 373.248 935.95 373.512C936.286 373.776 936.454 374.244 936.454 374.916V375.6C936.454 376.296 936.274 376.776 935.914 377.04C935.554 377.28 934.966 377.4 934.15 377.4ZM949.857 399.36C947.817 399.36 946.041 398.94 944.529 398.1C943.041 397.236 941.889 396.072 941.073 394.608C940.281 393.144 939.885 391.488 939.885 389.64C939.885 387.48 940.317 385.644 941.181 384.132C942.069 382.596 943.221 381.42 944.637 380.604C946.053 379.788 947.553 379.38 949.137 379.38C950.361 379.38 951.513 379.632 952.593 380.136C953.697 380.64 954.669 381.336 955.509 382.224C956.349 383.088 957.009 384.096 957.489 385.248C957.993 386.4 958.245 387.624 958.245 388.92C958.221 389.496 957.993 389.964 957.561 390.324C957.129 390.684 956.625 390.864 956.049 390.864H942.297L941.217 387.264H954.429L953.637 387.984V387.012C953.589 386.316 953.337 385.692 952.881 385.14C952.449 384.588 951.897 384.156 951.225 383.844C950.577 383.508 949.881 383.34 949.137 383.34C948.417 383.34 947.745 383.436 947.121 383.628C946.497 383.82 945.957 384.144 945.501 384.6C945.045 385.056 944.685 385.668 944.421 386.436C944.157 387.204 944.025 388.176 944.025 389.352C944.025 390.648 944.289 391.752 944.817 392.664C945.369 393.552 946.065 394.236 946.905 394.716C947.769 395.172 948.681 395.4 949.641 395.4C950.529 395.4 951.237 395.328 951.765 395.184C952.293 395.04 952.713 394.872 953.025 394.68C953.361 394.464 953.661 394.284 953.925 394.14C954.357 393.924 954.765 393.816 955.149 393.816C955.677 393.816 956.109 393.996 956.445 394.356C956.805 394.716 956.985 395.136 956.985 395.616C956.985 396.264 956.649 396.852 955.977 397.38C955.353 397.908 954.477 398.376 953.349 398.784C952.221 399.168 951.057 399.36 949.857 399.36ZM986.402 379.74C987.026 379.74 987.542 379.956 987.95 380.388C988.358 380.796 988.562 381.312 988.562 381.936V391.08C988.562 393.624 987.854 395.64 986.438 397.128C985.022 398.616 982.982 399.36 980.318 399.36C977.654 399.36 975.614 398.616 974.198 397.128C972.806 395.64 972.11 393.624 972.11 391.08V381.936C972.11 381.312 972.314 380.796 972.722 380.388C973.13 379.956 973.646 379.74 974.27 379.74C974.894 379.74 975.41 379.956 975.818 380.388C976.226 380.796 976.43 381.312 976.43 381.936V391.08C976.43 392.544 976.754 393.636 977.402 394.356C978.05 395.052 979.022 395.4 980.318 395.4C981.638 395.4 982.622 395.052 983.27 394.356C983.918 393.636 984.242 392.544 984.242 391.08V381.936C984.242 381.312 984.446 380.796 984.854 380.388C985.262 379.956 985.778 379.74 986.402 379.74ZM1003.35 379.38C1005.27 379.38 1006.69 379.848 1007.6 380.784C1008.51 381.696 1009.11 382.884 1009.4 384.348L1008.79 384.024L1009.08 383.448C1009.37 382.896 1009.81 382.308 1010.41 381.684C1011.01 381.036 1011.73 380.496 1012.57 380.064C1013.43 379.608 1014.39 379.38 1015.45 379.38C1017.18 379.38 1018.49 379.752 1019.37 380.496C1020.29 381.24 1020.91 382.236 1021.25 383.484C1021.58 384.708 1021.75 386.076 1021.75 387.588V396.804C1021.75 397.428 1021.55 397.956 1021.14 398.388C1020.73 398.796 1020.21 399 1019.59 399C1018.97 399 1018.45 398.796 1018.04 398.388C1017.63 397.956 1017.43 397.428 1017.43 396.804V387.588C1017.43 386.796 1017.33 386.088 1017.14 385.464C1016.95 384.816 1016.6 384.3 1016.1 383.916C1015.59 383.532 1014.87 383.34 1013.94 383.34C1013.03 383.34 1012.25 383.532 1011.6 383.916C1010.95 384.3 1010.46 384.816 1010.12 385.464C1009.81 386.088 1009.65 386.796 1009.65 387.588V396.804C1009.65 397.428 1009.45 397.956 1009.04 398.388C1008.63 398.796 1008.12 399 1007.49 399C1006.87 399 1006.35 398.796 1005.95 398.388C1005.54 397.956 1005.33 397.428 1005.33 396.804V387.588C1005.33 386.796 1005.24 386.088 1005.05 385.464C1004.85 384.816 1004.51 384.3 1004 383.916C1003.5 383.532 1002.78 383.34 1001.84 383.34C1000.93 383.34 1000.15 383.532 999.502 383.916C998.854 384.3 998.362 384.816 998.026 385.464C997.714 386.088 997.558 386.796 997.558 387.588V396.804C997.558 397.428 997.354 397.956 996.946 398.388C996.538 398.796 996.022 399 995.398 399C994.774 399 994.258 398.796 993.85 398.388C993.442 397.956 993.238 397.428 993.238 396.804V381.936C993.238 381.312 993.442 380.796 993.85 380.388C994.258 379.956 994.774 379.74 995.398 379.74C996.022 379.74 996.538 379.956 996.946 380.388C997.354 380.796 997.558 381.312 997.558 381.936V383.484L997.018 383.376C997.234 382.968 997.534 382.536 997.918 382.08C998.302 381.6 998.77 381.156 999.322 380.748C999.874 380.34 1000.49 380.016 1001.16 379.776C1001.83 379.512 1002.56 379.38 1003.35 379.38ZM1042.19 379.38C1042.82 379.38 1043.33 379.584 1043.74 379.992C1044.15 380.4 1044.35 380.928 1044.35 381.576V396.804C1044.35 397.428 1044.15 397.956 1043.74 398.388C1043.33 398.796 1042.82 399 1042.19 399C1041.57 399 1041.05 398.796 1040.65 398.388C1040.24 397.956 1040.03 397.428 1040.03 396.804V395.04L1040.83 395.364C1040.83 395.676 1040.66 396.06 1040.32 396.516C1039.99 396.948 1039.53 397.38 1038.95 397.812C1038.38 398.244 1037.69 398.616 1036.9 398.928C1036.13 399.216 1035.29 399.36 1034.38 399.36C1032.73 399.36 1031.23 398.94 1029.88 398.1C1028.54 397.236 1027.47 396.06 1026.68 394.572C1025.91 393.06 1025.53 391.332 1025.53 389.388C1025.53 387.42 1025.91 385.692 1026.68 384.204C1027.47 382.692 1028.53 381.516 1029.85 380.676C1031.17 379.812 1032.63 379.38 1034.24 379.38C1035.27 379.38 1036.22 379.536 1037.08 379.848C1037.95 380.16 1038.69 380.556 1039.31 381.036C1039.96 381.516 1040.45 382.008 1040.79 382.512C1041.15 382.992 1041.33 383.4 1041.33 383.736L1040.03 384.204V381.576C1040.03 380.952 1040.24 380.436 1040.65 380.028C1041.05 379.596 1041.57 379.38 1042.19 379.38ZM1034.92 395.4C1035.98 395.4 1036.9 395.136 1037.69 394.608C1038.49 394.08 1039.1 393.36 1039.53 392.448C1039.99 391.536 1040.21 390.516 1040.21 389.388C1040.21 388.236 1039.99 387.204 1039.53 386.292C1039.1 385.38 1038.49 384.66 1037.69 384.132C1036.9 383.604 1035.98 383.34 1034.92 383.34C1033.89 383.34 1032.98 383.604 1032.19 384.132C1031.39 384.66 1030.77 385.38 1030.31 386.292C1029.88 387.204 1029.67 388.236 1029.67 389.388C1029.67 390.516 1029.88 391.536 1030.31 392.448C1030.77 393.36 1031.39 394.08 1032.19 394.608C1032.98 395.136 1033.89 395.4 1034.92 395.4ZM1067.69 379.38C1069.06 379.38 1070.25 379.524 1071.25 379.812C1072.29 380.1 1073.08 380.508 1073.63 381.036C1074.21 381.54 1074.49 382.152 1074.49 382.872C1074.49 383.352 1074.35 383.808 1074.06 384.24C1073.77 384.648 1073.35 384.852 1072.8 384.852C1072.42 384.852 1072.09 384.804 1071.83 384.708C1071.59 384.588 1071.37 384.444 1071.18 384.276C1070.99 384.108 1070.76 383.952 1070.5 383.808C1070.26 383.664 1069.89 383.556 1069.38 383.484C1068.9 383.388 1068.54 383.34 1068.3 383.34C1067.08 383.34 1066.03 383.604 1065.17 384.132C1064.33 384.66 1063.68 385.38 1063.23 386.292C1062.77 387.18 1062.54 388.212 1062.54 389.388C1062.54 390.54 1062.77 391.572 1063.23 392.484C1063.71 393.372 1064.35 394.08 1065.17 394.608C1066.01 395.136 1066.97 395.4 1068.05 395.4C1068.65 395.4 1069.17 395.364 1069.6 395.292C1070.03 395.22 1070.39 395.112 1070.68 394.968C1071.01 394.776 1071.31 394.572 1071.58 394.356C1071.84 394.14 1072.24 394.032 1072.77 394.032C1073.39 394.032 1073.87 394.236 1074.21 394.644C1074.54 395.028 1074.71 395.508 1074.71 396.084C1074.71 396.684 1074.37 397.236 1073.7 397.74C1073.03 398.22 1072.14 398.616 1071.04 398.928C1069.96 399.216 1068.78 399.36 1067.51 399.36C1065.61 399.36 1063.97 398.928 1062.58 398.064C1061.19 397.176 1060.11 395.976 1059.34 394.464C1058.59 392.952 1058.22 391.26 1058.22 389.388C1058.22 387.42 1058.62 385.692 1059.41 384.204C1060.23 382.692 1061.34 381.516 1062.76 380.676C1064.2 379.812 1065.84 379.38 1067.69 379.38ZM1096.51 389.388C1096.51 391.356 1096.06 393.096 1095.18 394.608C1094.31 396.096 1093.14 397.26 1091.65 398.1C1090.18 398.94 1088.54 399.36 1086.72 399.36C1084.89 399.36 1083.24 398.94 1081.75 398.1C1080.28 397.26 1079.11 396.096 1078.22 394.608C1077.36 393.096 1076.92 391.356 1076.92 389.388C1076.92 387.42 1077.36 385.692 1078.22 384.204C1079.11 382.692 1080.28 381.516 1081.75 380.676C1083.24 379.812 1084.89 379.38 1086.72 379.38C1088.54 379.38 1090.18 379.812 1091.65 380.676C1093.14 381.516 1094.31 382.692 1095.18 384.204C1096.06 385.692 1096.51 387.42 1096.51 389.388ZM1092.19 389.388C1092.19 388.164 1091.94 387.108 1091.43 386.22C1090.95 385.308 1090.29 384.6 1089.45 384.096C1088.64 383.592 1087.72 383.34 1086.72 383.34C1085.71 383.34 1084.78 383.592 1083.94 384.096C1083.13 384.6 1082.47 385.308 1081.96 386.22C1081.48 387.108 1081.24 388.164 1081.24 389.388C1081.24 390.588 1081.48 391.644 1081.96 392.556C1082.47 393.444 1083.13 394.14 1083.94 394.644C1084.78 395.148 1085.71 395.4 1086.72 395.4C1087.72 395.4 1088.64 395.148 1089.45 394.644C1090.29 394.14 1090.95 393.444 1091.43 392.556C1091.94 391.644 1092.19 390.588 1092.19 389.388ZM1110.59 379.38C1112.36 379.38 1113.71 379.752 1114.62 380.496C1115.55 381.24 1116.19 382.236 1116.53 383.484C1116.89 384.708 1117.07 386.076 1117.07 387.588V396.804C1117.07 397.428 1116.86 397.956 1116.45 398.388C1116.05 398.796 1115.53 399 1114.91 399C1114.28 399 1113.77 398.796 1113.36 398.388C1112.95 397.956 1112.75 397.428 1112.75 396.804V387.588C1112.75 386.796 1112.64 386.088 1112.42 385.464C1112.23 384.816 1111.87 384.3 1111.34 383.916C1110.81 383.532 1110.06 383.34 1109.07 383.34C1108.11 383.34 1107.3 383.532 1106.63 383.916C1105.98 384.3 1105.47 384.816 1105.11 385.464C1104.78 386.088 1104.61 386.796 1104.61 387.588V396.804C1104.61 397.428 1104.41 397.956 1104 398.388C1103.59 398.796 1103.07 399 1102.45 399C1101.83 399 1101.31 398.796 1100.9 398.388C1100.49 397.956 1100.29 397.428 1100.29 396.804V381.936C1100.29 381.312 1100.49 380.796 1100.9 380.388C1101.31 379.956 1101.83 379.74 1102.45 379.74C1103.07 379.74 1103.59 379.956 1104 380.388C1104.41 380.796 1104.61 381.312 1104.61 381.936V383.484L1104.07 383.376C1104.29 382.968 1104.6 382.536 1105.01 382.08C1105.41 381.6 1105.89 381.156 1106.45 380.748C1107 380.34 1107.62 380.016 1108.32 379.776C1109.01 379.512 1109.77 379.38 1110.59 379.38ZM1121.95 380.1H1130.48C1131.06 380.1 1131.54 380.292 1131.92 380.676C1132.31 381.06 1132.5 381.54 1132.5 382.116C1132.5 382.668 1132.31 383.136 1131.92 383.52C1131.54 383.88 1131.06 384.06 1130.48 384.06H1121.95C1121.37 384.06 1120.89 383.868 1120.51 383.484C1120.13 383.1 1119.93 382.62 1119.93 382.044C1119.93 381.492 1120.13 381.036 1120.51 380.676C1120.89 380.292 1121.37 380.1 1121.95 380.1ZM1125.8 375.6C1126.43 375.6 1126.93 375.816 1127.31 376.248C1127.72 376.656 1127.93 377.172 1127.93 377.796V393.816C1127.93 394.152 1127.99 394.428 1128.11 394.644C1128.25 394.86 1128.43 395.016 1128.65 395.112C1128.89 395.208 1129.14 395.256 1129.4 395.256C1129.69 395.256 1129.95 395.208 1130.19 395.112C1130.43 394.992 1130.71 394.932 1131.02 394.932C1131.36 394.932 1131.66 395.088 1131.92 395.4C1132.21 395.712 1132.35 396.144 1132.35 396.696C1132.35 397.368 1131.98 397.92 1131.24 398.352C1130.52 398.784 1129.74 399 1128.9 399C1128.39 399 1127.83 398.964 1127.21 398.892C1126.61 398.796 1126.03 398.592 1125.48 398.28C1124.95 397.944 1124.51 397.44 1124.15 396.768C1123.79 396.096 1123.61 395.172 1123.61 393.996V377.796C1123.61 377.172 1123.81 376.656 1124.22 376.248C1124.65 375.816 1125.18 375.6 1125.8 375.6ZM1152.23 379.38C1152.86 379.38 1153.37 379.584 1153.78 379.992C1154.19 380.4 1154.39 380.928 1154.39 381.576V396.804C1154.39 397.428 1154.19 397.956 1153.78 398.388C1153.37 398.796 1152.86 399 1152.23 399C1151.61 399 1151.09 398.796 1150.69 398.388C1150.28 397.956 1150.07 397.428 1150.07 396.804V395.04L1150.87 395.364C1150.87 395.676 1150.7 396.06 1150.36 396.516C1150.03 396.948 1149.57 397.38 1148.99 397.812C1148.42 398.244 1147.73 398.616 1146.94 398.928C1146.17 399.216 1145.33 399.36 1144.42 399.36C1142.77 399.36 1141.27 398.94 1139.92 398.1C1138.58 397.236 1137.51 396.06 1136.72 394.572C1135.95 393.06 1135.57 391.332 1135.57 389.388C1135.57 387.42 1135.95 385.692 1136.72 384.204C1137.51 382.692 1138.57 381.516 1139.89 380.676C1141.21 379.812 1142.67 379.38 1144.28 379.38C1145.31 379.38 1146.26 379.536 1147.12 379.848C1147.99 380.16 1148.73 380.556 1149.35 381.036C1150 381.516 1150.49 382.008 1150.83 382.512C1151.19 382.992 1151.37 383.4 1151.37 383.736L1150.07 384.204V381.576C1150.07 380.952 1150.28 380.436 1150.69 380.028C1151.09 379.596 1151.61 379.38 1152.23 379.38ZM1144.96 395.4C1146.02 395.4 1146.94 395.136 1147.73 394.608C1148.53 394.08 1149.14 393.36 1149.57 392.448C1150.03 391.536 1150.25 390.516 1150.25 389.388C1150.25 388.236 1150.03 387.204 1149.57 386.292C1149.14 385.38 1148.53 384.66 1147.73 384.132C1146.94 383.604 1146.02 383.34 1144.96 383.34C1143.93 383.34 1143.02 383.604 1142.23 384.132C1141.43 384.66 1140.81 385.38 1140.35 386.292C1139.92 387.204 1139.71 388.236 1139.71 389.388C1139.71 390.516 1139.92 391.536 1140.35 392.448C1140.81 393.36 1141.43 394.08 1142.23 394.608C1143.02 395.136 1143.93 395.4 1144.96 395.4ZM1178.23 399.36C1176.19 399.36 1174.42 398.94 1172.9 398.1C1171.42 397.236 1170.26 396.072 1169.45 394.608C1168.66 393.144 1168.26 391.488 1168.26 389.64C1168.26 387.48 1168.69 385.644 1169.56 384.132C1170.44 382.596 1171.6 381.42 1173.01 380.604C1174.43 379.788 1175.93 379.38 1177.51 379.38C1178.74 379.38 1179.89 379.632 1180.97 380.136C1182.07 380.64 1183.04 381.336 1183.88 382.224C1184.72 383.088 1185.38 384.096 1185.86 385.248C1186.37 386.4 1186.62 387.624 1186.62 388.92C1186.6 389.496 1186.37 389.964 1185.94 390.324C1185.5 390.684 1185 390.864 1184.42 390.864H1170.67L1169.59 387.264H1182.8L1182.01 387.984V387.012C1181.96 386.316 1181.71 385.692 1181.26 385.14C1180.82 384.588 1180.27 384.156 1179.6 383.844C1178.95 383.508 1178.26 383.34 1177.51 383.34C1176.79 383.34 1176.12 383.436 1175.5 383.628C1174.87 383.82 1174.33 384.144 1173.88 384.6C1173.42 385.056 1173.06 385.668 1172.8 386.436C1172.53 387.204 1172.4 388.176 1172.4 389.352C1172.4 390.648 1172.66 391.752 1173.19 392.664C1173.74 393.552 1174.44 394.236 1175.28 394.716C1176.14 395.172 1177.06 395.4 1178.02 395.4C1178.9 395.4 1179.61 395.328 1180.14 395.184C1180.67 395.04 1181.09 394.872 1181.4 394.68C1181.74 394.464 1182.04 394.284 1182.3 394.14C1182.73 393.924 1183.14 393.816 1183.52 393.816C1184.05 393.816 1184.48 393.996 1184.82 394.356C1185.18 394.716 1185.36 395.136 1185.36 395.616C1185.36 396.264 1185.02 396.852 1184.35 397.38C1183.73 397.908 1182.85 398.376 1181.72 398.784C1180.6 399.168 1179.43 399.36 1178.23 399.36ZM1200.51 379.38C1202.43 379.38 1203.85 379.848 1204.76 380.784C1205.67 381.696 1206.27 382.884 1206.56 384.348L1205.95 384.024L1206.23 383.448C1206.52 382.896 1206.97 382.308 1207.57 381.684C1208.17 381.036 1208.89 380.496 1209.73 380.064C1210.59 379.608 1211.55 379.38 1212.61 379.38C1214.33 379.38 1215.64 379.752 1216.53 380.496C1217.44 381.24 1218.07 382.236 1218.4 383.484C1218.74 384.708 1218.91 386.076 1218.91 387.588V396.804C1218.91 397.428 1218.7 397.956 1218.29 398.388C1217.89 398.796 1217.37 399 1216.75 399C1216.12 399 1215.61 398.796 1215.2 398.388C1214.79 397.956 1214.59 397.428 1214.59 396.804V387.588C1214.59 386.796 1214.49 386.088 1214.3 385.464C1214.11 384.816 1213.76 384.3 1213.25 383.916C1212.75 383.532 1212.03 383.34 1211.09 383.34C1210.18 383.34 1209.4 383.532 1208.75 383.916C1208.11 384.3 1207.61 384.816 1207.28 385.464C1206.97 386.088 1206.81 386.796 1206.81 387.588V396.804C1206.81 397.428 1206.61 397.956 1206.2 398.388C1205.79 398.796 1205.27 399 1204.65 399C1204.03 399 1203.51 398.796 1203.1 398.388C1202.69 397.956 1202.49 397.428 1202.49 396.804V387.588C1202.49 386.796 1202.39 386.088 1202.2 385.464C1202.01 384.816 1201.66 384.3 1201.16 383.916C1200.65 383.532 1199.93 383.34 1199 383.34C1198.09 383.34 1197.31 383.532 1196.66 383.916C1196.01 384.3 1195.52 384.816 1195.18 385.464C1194.87 386.088 1194.71 386.796 1194.71 387.588V396.804C1194.71 397.428 1194.51 397.956 1194.1 398.388C1193.69 398.796 1193.18 399 1192.55 399C1191.93 399 1191.41 398.796 1191.01 398.388C1190.6 397.956 1190.39 397.428 1190.39 396.804V381.936C1190.39 381.312 1190.6 380.796 1191.01 380.388C1191.41 379.956 1191.93 379.74 1192.55 379.74C1193.18 379.74 1193.69 379.956 1194.1 380.388C1194.51 380.796 1194.71 381.312 1194.71 381.936V383.484L1194.17 383.376C1194.39 382.968 1194.69 382.536 1195.07 382.08C1195.46 381.6 1195.93 381.156 1196.48 380.748C1197.03 380.34 1197.64 380.016 1198.31 379.776C1198.99 379.512 1199.72 379.38 1200.51 379.38ZM980.648 424.38C982.424 424.38 983.768 424.752 984.68 425.496C985.616 426.24 986.252 427.236 986.588 428.484C986.948 429.708 987.128 431.076 987.128 432.588V441.804C987.128 442.428 986.924 442.956 986.516 443.388C986.108 443.796 985.592 444 984.968 444C984.344 444 983.828 443.796 983.42 443.388C983.012 442.956 982.808 442.428 982.808 441.804V432.588C982.808 431.796 982.7 431.088 982.484 430.464C982.292 429.816 981.932 429.3 981.404 428.916C980.876 428.532 980.12 428.34 979.136 428.34C978.176 428.34 977.36 428.532 976.688 428.916C976.04 429.3 975.536 429.816 975.176 430.464C974.84 431.088 974.672 431.796 974.672 432.588V441.804C974.672 442.428 974.468 442.956 974.06 443.388C973.652 443.796 973.136 444 972.512 444C971.888 444 971.372 443.796 970.964 443.388C970.556 442.956 970.352 442.428 970.352 441.804V426.936C970.352 426.312 970.556 425.796 970.964 425.388C971.372 424.956 971.888 424.74 972.512 424.74C973.136 424.74 973.652 424.956 974.06 425.388C974.468 425.796 974.672 426.312 974.672 426.936V428.484L974.132 428.376C974.348 427.968 974.66 427.536 975.068 427.08C975.476 426.6 975.956 426.156 976.508 425.748C977.06 425.34 977.684 425.016 978.38 424.776C979.076 424.512 979.832 424.38 980.648 424.38ZM1010.48 434.388C1010.48 436.356 1010.04 438.096 1009.15 439.608C1008.29 441.096 1007.11 442.26 1005.62 443.1C1004.16 443.94 1002.51 444.36 1000.69 444.36C998.865 444.36 997.209 443.94 995.721 443.1C994.257 442.26 993.081 441.096 992.193 439.608C991.329 438.096 990.897 436.356 990.897 434.388C990.897 432.42 991.329 430.692 992.193 429.204C993.081 427.692 994.257 426.516 995.721 425.676C997.209 424.812 998.865 424.38 1000.69 424.38C1002.51 424.38 1004.16 424.812 1005.62 425.676C1007.11 426.516 1008.29 427.692 1009.15 429.204C1010.04 430.692 1010.48 432.42 1010.48 434.388ZM1006.16 434.388C1006.16 433.164 1005.91 432.108 1005.41 431.22C1004.93 430.308 1004.27 429.6 1003.43 429.096C1002.61 428.592 1001.7 428.34 1000.69 428.34C999.681 428.34 998.757 428.592 997.917 429.096C997.101 429.6 996.441 430.308 995.937 431.22C995.457 432.108 995.217 433.164 995.217 434.388C995.217 435.588 995.457 436.644 995.937 437.556C996.441 438.444 997.101 439.14 997.917 439.644C998.757 440.148 999.681 440.4 1000.69 440.4C1001.7 440.4 1002.61 440.148 1003.43 439.644C1004.27 439.14 1004.93 438.444 1005.41 437.556C1005.91 436.644 1006.16 435.588 1006.16 434.388ZM1013.15 441.012C1012.91 440.676 1012.8 440.244 1012.82 439.716C1012.85 439.188 1013.16 438.732 1013.76 438.348C1014.14 438.108 1014.55 438.012 1014.98 438.06C1015.41 438.084 1015.83 438.3 1016.24 438.708C1016.94 439.404 1017.67 439.944 1018.44 440.328C1019.21 440.712 1020.17 440.904 1021.32 440.904C1021.68 440.88 1022.07 440.832 1022.51 440.76C1022.94 440.664 1023.31 440.472 1023.62 440.184C1023.96 439.872 1024.13 439.404 1024.13 438.78C1024.13 438.252 1023.95 437.832 1023.59 437.52C1023.23 437.208 1022.75 436.944 1022.15 436.728C1021.57 436.512 1020.92 436.308 1020.2 436.116C1019.46 435.9 1018.69 435.66 1017.9 435.396C1017.13 435.132 1016.42 434.796 1015.77 434.388C1015.13 433.956 1014.6 433.392 1014.19 432.696C1013.78 432 1013.58 431.124 1013.58 430.068C1013.58 428.868 1013.91 427.848 1014.59 427.008C1015.26 426.168 1016.12 425.52 1017.18 425.064C1018.26 424.608 1019.39 424.38 1020.56 424.38C1021.31 424.38 1022.09 424.476 1022.9 424.668C1023.72 424.836 1024.5 425.124 1025.24 425.532C1025.99 425.916 1026.61 426.432 1027.11 427.08C1027.38 427.44 1027.53 427.872 1027.58 428.376C1027.63 428.88 1027.4 429.336 1026.9 429.744C1026.54 430.032 1026.12 430.164 1025.64 430.14C1025.16 430.092 1024.76 429.924 1024.45 429.636C1024.04 429.108 1023.49 428.688 1022.79 428.376C1022.12 428.064 1021.34 427.908 1020.45 427.908C1020.09 427.908 1019.7 427.956 1019.27 428.052C1018.86 428.124 1018.5 428.304 1018.19 428.592C1017.87 428.856 1017.72 429.288 1017.72 429.888C1017.72 430.44 1017.9 430.884 1018.26 431.22C1018.62 431.532 1019.1 431.796 1019.7 432.012C1020.32 432.204 1020.98 432.396 1021.68 432.588C1022.4 432.78 1023.13 433.008 1023.87 433.272C1024.62 433.536 1025.3 433.884 1025.93 434.316C1026.55 434.748 1027.05 435.312 1027.44 436.008C1027.82 436.68 1028.01 437.544 1028.01 438.6C1028.01 439.824 1027.65 440.868 1026.93 441.732C1026.21 442.596 1025.31 443.256 1024.23 443.712C1023.15 444.144 1022.05 444.36 1020.92 444.36C1019.51 444.36 1018.09 444.12 1016.67 443.64C1015.26 443.136 1014.08 442.26 1013.15 441.012ZM1030.51 441.012C1030.27 440.676 1030.17 440.244 1030.19 439.716C1030.21 439.188 1030.53 438.732 1031.13 438.348C1031.51 438.108 1031.92 438.012 1032.35 438.06C1032.78 438.084 1033.2 438.3 1033.61 438.708C1034.31 439.404 1035.04 439.944 1035.81 440.328C1036.57 440.712 1037.53 440.904 1038.69 440.904C1039.05 440.88 1039.44 440.832 1039.87 440.76C1040.31 440.664 1040.68 440.472 1040.99 440.184C1041.33 439.872 1041.49 439.404 1041.49 438.78C1041.49 438.252 1041.31 437.832 1040.95 437.52C1040.59 437.208 1040.11 436.944 1039.51 436.728C1038.94 436.512 1038.29 436.308 1037.57 436.116C1036.83 435.9 1036.06 435.66 1035.27 435.396C1034.5 435.132 1033.79 434.796 1033.14 434.388C1032.49 433.956 1031.97 433.392 1031.56 432.696C1031.15 432 1030.95 431.124 1030.95 430.068C1030.95 428.868 1031.28 427.848 1031.95 427.008C1032.63 426.168 1033.49 425.52 1034.55 425.064C1035.63 424.608 1036.75 424.38 1037.93 424.38C1038.67 424.38 1039.45 424.476 1040.27 424.668C1041.09 424.836 1041.87 425.124 1042.61 425.532C1043.35 425.916 1043.98 426.432 1044.48 427.08C1044.75 427.44 1044.9 427.872 1044.95 428.376C1045 428.88 1044.77 429.336 1044.27 429.744C1043.91 430.032 1043.49 430.164 1043.01 430.14C1042.53 430.092 1042.13 429.924 1041.82 429.636C1041.41 429.108 1040.86 428.688 1040.16 428.376C1039.49 428.064 1038.71 427.908 1037.82 427.908C1037.46 427.908 1037.07 427.956 1036.63 428.052C1036.23 428.124 1035.87 428.304 1035.55 428.592C1035.24 428.856 1035.09 429.288 1035.09 429.888C1035.09 430.44 1035.27 430.884 1035.63 431.22C1035.99 431.532 1036.47 431.796 1037.07 432.012C1037.69 432.204 1038.35 432.396 1039.05 432.588C1039.77 432.78 1040.5 433.008 1041.24 433.272C1041.99 433.536 1042.67 433.884 1043.29 434.316C1043.92 434.748 1044.42 435.312 1044.81 436.008C1045.19 436.68 1045.38 437.544 1045.38 438.6C1045.38 439.824 1045.02 440.868 1044.3 441.732C1043.58 442.596 1042.68 443.256 1041.6 443.712C1040.52 444.144 1039.42 444.36 1038.29 444.36C1036.87 444.36 1035.46 444.12 1034.04 443.64C1032.63 443.136 1031.45 442.26 1030.51 441.012ZM1067.68 434.388C1067.68 436.356 1067.24 438.096 1066.35 439.608C1065.48 441.096 1064.31 442.26 1062.82 443.1C1061.36 443.94 1059.71 444.36 1057.89 444.36C1056.06 444.36 1054.41 443.94 1052.92 443.1C1051.46 442.26 1050.28 441.096 1049.39 439.608C1048.53 438.096 1048.1 436.356 1048.1 434.388C1048.1 432.42 1048.53 430.692 1049.39 429.204C1050.28 427.692 1051.46 426.516 1052.92 425.676C1054.41 424.812 1056.06 424.38 1057.89 424.38C1059.71 424.38 1061.36 424.812 1062.82 425.676C1064.31 426.516 1065.48 427.692 1066.35 429.204C1067.24 430.692 1067.68 432.42 1067.68 434.388ZM1063.36 434.388C1063.36 433.164 1063.11 432.108 1062.6 431.22C1062.12 430.308 1061.46 429.6 1060.62 429.096C1059.81 428.592 1058.9 428.34 1057.89 428.34C1056.88 428.34 1055.96 428.592 1055.12 429.096C1054.3 429.6 1053.64 430.308 1053.14 431.22C1052.66 432.108 1052.42 433.164 1052.42 434.388C1052.42 435.588 1052.66 436.644 1053.14 437.556C1053.64 438.444 1054.3 439.14 1055.12 439.644C1055.96 440.148 1056.88 440.4 1057.89 440.4C1058.9 440.4 1059.81 440.148 1060.62 439.644C1061.46 439.14 1062.12 438.444 1062.6 437.556C1063.11 436.644 1063.36 435.588 1063.36 434.388ZM1090.01 444.36C1088.33 444.36 1086.82 444.156 1085.47 443.748C1084.13 443.316 1082.85 442.572 1081.62 441.516C1081.31 441.252 1081.07 440.952 1080.9 440.616C1080.73 440.28 1080.65 439.944 1080.65 439.608C1080.65 439.056 1080.84 438.576 1081.23 438.168C1081.63 437.736 1082.14 437.52 1082.74 437.52C1083.19 437.52 1083.6 437.664 1083.96 437.952C1084.87 438.696 1085.77 439.26 1086.66 439.644C1087.57 440.028 1088.69 440.22 1090.01 440.22C1090.9 440.22 1091.71 440.088 1092.46 439.824C1093.2 439.536 1093.8 439.164 1094.26 438.708C1094.71 438.228 1094.94 437.688 1094.94 437.088C1094.94 436.368 1094.73 435.756 1094.29 435.252C1093.86 434.748 1093.2 434.328 1092.31 433.992C1091.43 433.632 1090.3 433.356 1088.93 433.164C1087.63 432.972 1086.49 432.684 1085.51 432.3C1084.53 431.892 1083.7 431.388 1083.03 430.788C1082.38 430.164 1081.89 429.444 1081.55 428.628C1081.21 427.788 1081.05 426.852 1081.05 425.82C1081.05 424.26 1081.44 422.928 1082.23 421.824C1083.05 420.72 1084.14 419.88 1085.51 419.304C1086.88 418.728 1088.39 418.44 1090.05 418.44C1091.61 418.44 1093.05 418.68 1094.37 419.16C1095.71 419.616 1096.8 420.204 1097.64 420.924C1098.34 421.476 1098.69 422.112 1098.69 422.832C1098.69 423.36 1098.48 423.84 1098.07 424.272C1097.67 424.704 1097.19 424.92 1096.63 424.92C1096.27 424.92 1095.95 424.812 1095.66 424.596C1095.28 424.26 1094.76 423.948 1094.11 423.66C1093.47 423.348 1092.78 423.096 1092.06 422.904C1091.34 422.688 1090.67 422.58 1090.05 422.58C1089.01 422.58 1088.14 422.712 1087.42 422.976C1086.72 423.24 1086.19 423.6 1085.83 424.056C1085.47 424.512 1085.29 425.04 1085.29 425.64C1085.29 426.36 1085.5 426.96 1085.91 427.44C1086.34 427.896 1086.95 428.268 1087.74 428.556C1088.53 428.82 1089.48 429.06 1090.59 429.276C1092.03 429.54 1093.29 429.852 1094.37 430.212C1095.47 430.572 1096.38 431.04 1097.1 431.616C1097.82 432.168 1098.36 432.876 1098.72 433.74C1099.08 434.58 1099.26 435.612 1099.26 436.836C1099.26 438.396 1098.83 439.74 1097.97 440.868C1097.1 441.996 1095.96 442.86 1094.55 443.46C1093.15 444.06 1091.64 444.36 1090.01 444.36ZM1107.1 441.804C1107.1 442.428 1106.9 442.956 1106.49 443.388C1106.08 443.796 1105.56 444 1104.94 444C1104.32 444 1103.8 443.796 1103.39 443.388C1102.98 442.956 1102.78 442.428 1102.78 441.804V426.936C1102.78 426.312 1102.98 425.796 1103.39 425.388C1103.8 424.956 1104.32 424.74 1104.94 424.74C1105.56 424.74 1106.08 424.956 1106.49 425.388C1106.9 425.796 1107.1 426.312 1107.1 426.936V441.804ZM1104.9 422.4C1104.09 422.4 1103.51 422.268 1103.18 422.004C1102.84 421.74 1102.67 421.272 1102.67 420.6V419.916C1102.67 419.22 1102.85 418.752 1103.21 418.512C1103.6 418.248 1104.17 418.116 1104.94 418.116C1105.78 418.116 1106.37 418.248 1106.7 418.512C1107.04 418.776 1107.21 419.244 1107.21 419.916V420.6C1107.21 421.296 1107.03 421.776 1106.67 422.04C1106.31 422.28 1105.72 422.4 1104.9 422.4ZM1111.76 425.1H1120.29C1120.86 425.1 1121.34 425.292 1121.73 425.676C1122.11 426.06 1122.3 426.54 1122.3 427.116C1122.3 427.668 1122.11 428.136 1121.73 428.52C1121.34 428.88 1120.86 429.06 1120.29 429.06H1111.76C1111.18 429.06 1110.7 428.868 1110.32 428.484C1109.93 428.1 1109.74 427.62 1109.74 427.044C1109.74 426.492 1109.93 426.036 1110.32 425.676C1110.7 425.292 1111.18 425.1 1111.76 425.1ZM1115.61 420.6C1116.23 420.6 1116.74 420.816 1117.12 421.248C1117.53 421.656 1117.73 422.172 1117.73 422.796V438.816C1117.73 439.152 1117.79 439.428 1117.91 439.644C1118.06 439.86 1118.24 440.016 1118.45 440.112C1118.69 440.208 1118.94 440.256 1119.21 440.256C1119.5 440.256 1119.76 440.208 1120 440.112C1120.24 439.992 1120.52 439.932 1120.83 439.932C1121.16 439.932 1121.46 440.088 1121.73 440.4C1122.02 440.712 1122.16 441.144 1122.16 441.696C1122.16 442.368 1121.79 442.92 1121.04 443.352C1120.32 443.784 1119.54 444 1118.7 444C1118.2 444 1117.64 443.964 1117.01 443.892C1116.41 443.796 1115.84 443.592 1115.28 443.28C1114.76 442.944 1114.31 442.44 1113.95 441.768C1113.59 441.096 1113.41 440.172 1113.41 438.996V422.796C1113.41 422.172 1113.62 421.656 1114.02 421.248C1114.46 420.816 1114.98 420.6 1115.61 420.6ZM1135.17 444.36C1133.13 444.36 1131.35 443.94 1129.84 443.1C1128.35 442.236 1127.2 441.072 1126.38 439.608C1125.59 438.144 1125.19 436.488 1125.19 434.64C1125.19 432.48 1125.63 430.644 1126.49 429.132C1127.38 427.596 1128.53 426.42 1129.95 425.604C1131.36 424.788 1132.86 424.38 1134.45 424.38C1135.67 424.38 1136.82 424.632 1137.9 425.136C1139.01 425.64 1139.98 426.336 1140.82 427.224C1141.66 428.088 1142.32 429.096 1142.8 430.248C1143.3 431.4 1143.55 432.624 1143.55 433.92C1143.53 434.496 1143.3 434.964 1142.87 435.324C1142.44 435.684 1141.93 435.864 1141.36 435.864H1127.61L1126.53 432.264H1139.74L1138.95 432.984V432.012C1138.9 431.316 1138.65 430.692 1138.19 430.14C1137.76 429.588 1137.21 429.156 1136.53 428.844C1135.89 428.508 1135.19 428.34 1134.45 428.34C1133.73 428.34 1133.05 428.436 1132.43 428.628C1131.81 428.82 1131.27 429.144 1130.81 429.6C1130.35 430.056 1129.99 430.668 1129.73 431.436C1129.47 432.204 1129.33 433.176 1129.33 434.352C1129.33 435.648 1129.6 436.752 1130.13 437.664C1130.68 438.552 1131.37 439.236 1132.21 439.716C1133.08 440.172 1133.99 440.4 1134.95 440.4C1135.84 440.4 1136.55 440.328 1137.07 440.184C1137.6 440.04 1138.02 439.872 1138.33 439.68C1138.67 439.464 1138.97 439.284 1139.23 439.14C1139.67 438.924 1140.07 438.816 1140.46 438.816C1140.99 438.816 1141.42 438.996 1141.75 439.356C1142.11 439.716 1142.29 440.136 1142.29 440.616C1142.29 441.264 1141.96 441.852 1141.29 442.38C1140.66 442.908 1139.79 443.376 1138.66 443.784C1137.53 444.168 1136.37 444.36 1135.17 444.36Z" fill="white"/>
</g>
<defs>
<filter id="filter0_dd_228_74586" x="100.961" y="586.683" width="379.921" height="377.901" filterUnits="userSpaceOnUse" color-interpolation-filters="sRGB">
<feFlood flood-opacity="0" result="BackgroundImageFix"/>
<feColorMatrix in="SourceAlpha" type="matrix" values="0 0 0 0 0 0 0 0 0 0 0 0 0 0 0 0 0 0 127 0" result="hardAlpha"/>
<feOffset dy="9"/>
<feGaussianBlur stdDeviation="7.5"/>
<feComposite in2="hardAlpha" operator="out"/>
<feColorMatrix type="matrix" values="0 0 0 0 0 0 0 0 0 0.470588 0 0 0 0 0.941176 0 0 0 0.25 0"/>
<feBlend mode="normal" in2="BackgroundImageFix" result="effect1_dropShadow_228_74586"/>
<feColorMatrix in="SourceAlpha" type="matrix" values="0 0 0 0 0 0 0 0 0 0 0 0 0 0 0 0 0 0 127 0" result="hardAlpha"/>
<feOffset dy="4"/>
<feGaussianBlur stdDeviation="2"/>
<feComposite in2="hardAlpha" operator="out"/>
<feColorMatrix type="matrix" values="0 0 0 0 0 0 0 0 0 0 0 0 0 0 0 0 0 0 0.25 0"/>
<feBlend mode="normal" in2="effect1_dropShadow_228_74586" result="effect2_dropShadow_228_74586"/>
<feBlend mode="normal" in="SourceGraphic" in2="effect2_dropShadow_228_74586" result="shape"/>
</filter>
<filter id="filter1_dd_228_74586" x="768.851" y="148.872" width="547.988" height="537.635" filterUnits="userSpaceOnUse" color-interpolation-filters="sRGB">
<feFlood flood-opacity="0" result="BackgroundImageFix"/>
<feColorMatrix in="SourceAlpha" type="matrix" values="0 0 0 0 0 0 0 0 0 0 0 0 0 0 0 0 0 0 127 0" result="hardAlpha"/>
<feOffset dy="9"/>
<feGaussianBlur stdDeviation="7.5"/>
<feComposite in2="hardAlpha" operator="out"/>
<feColorMatrix type="matrix" values="0 0 0 0 0 0 0 0 0 0.470588 0 0 0 0 0.941176 0 0 0 0.25 0"/>
<feBlend mode="normal" in2="BackgroundImageFix" result="effect1_dropShadow_228_74586"/>
<feColorMatrix in="SourceAlpha" type="matrix" values="0 0 0 0 0 0 0 0 0 0 0 0 0 0 0 0 0 0 127 0" result="hardAlpha"/>
<feOffset dy="4"/>
<feGaussianBlur stdDeviation="2"/>
<feComposite in2="hardAlpha" operator="out"/>
<feColorMatrix type="matrix" values="0 0 0 0 0 0 0 0 0 0 0 0 0 0 0 0 0 0 0.25 0"/>
<feBlend mode="normal" in2="effect1_dropShadow_228_74586" result="effect2_dropShadow_228_74586"/>
<feBlend mode="normal" in="SourceGraphic" in2="effect2_dropShadow_228_74586" result="shape"/>
</filter>
<filter id="filter2_dd_228_74586" x="-121" y="-100" width="485" height="467" filterUnits="userSpaceOnUse" color-interpolation-filters="sRGB">
<feFlood flood-opacity="0" result="BackgroundImageFix"/>
<feColorMatrix in="SourceAlpha" type="matrix" values="0 0 0 0 0 0 0 0 0 0 0 0 0 0 0 0 0 0 127 0" result="hardAlpha"/>
<feMorphology radius="10" operator="dilate" in="SourceAlpha" result="effect1_dropShadow_228_74586"/>
<feOffset dy="4"/>
<feGaussianBlur stdDeviation="10"/>
<feComposite in2="hardAlpha" operator="out"/>
<feColorMatrix type="matrix" values="0 0 0 0 0 0 0 0 0 0.470588 0 0 0 0 0.941176 0 0 0 0.25 0"/>
<feBlend mode="normal" in2="BackgroundImageFix" result="effect1_dropShadow_228_74586"/>
<feColorMatrix in="SourceAlpha" type="matrix" values="0 0 0 0 0 0 0 0 0 0 0 0 0 0 0 0 0 0 127 0" result="hardAlpha"/>
<feOffset dy="4"/>
<feGaussianBlur stdDeviation="2"/>
<feComposite in2="hardAlpha" operator="out"/>
<feColorMatrix type="matrix" values="0 0 0 0 0 0 0 0 0 0 0 0 0 0 0 0 0 0 0.25 0"/>
<feBlend mode="normal" in2="effect1_dropShadow_228_74586" result="effect2_dropShadow_228_74586"/>
<feBlend mode="normal" in="SourceGraphic" in2="effect2_dropShadow_228_74586" result="shape"/>
</filter>
<clipPath id="clip0_228_74586">
<rect width="1440" height="1024" fill="white"/>
</clipPath>
</defs>
</svg>
