<svg width="47" height="45" viewBox="0 0 47 45" fill="none" xmlns="http://www.w3.org/2000/svg">
<path d="M46.4168 10.21C46.3911 9.26081 46.3146 8.31356 46.1877 7.37195C46.0165 6.54722 45.7314 5.74815 45.3397 4.99595C44.9301 4.17998 44.3801 3.43621 43.7127 2.79595C43.0391 2.1628 42.2657 1.63565 41.421 1.23395C40.6364 0.865329 39.8041 0.598973 38.946 0.441951C37.9745 0.30225 36.9948 0.221423 36.0127 0.199951H11.0106C10.0219 0.224671 9.03518 0.298101 8.05433 0.419951C7.19524 0.584222 6.36287 0.857978 5.57933 1.23395C4.72936 1.62717 3.9546 2.15525 3.28766 2.79595C2.62813 3.44255 2.07902 4.18502 1.66058 4.99595C1.2766 5.74915 0.999144 6.54822 0.835579 7.37195C0.690057 8.30461 0.605863 9.24513 0.583496 10.188C0.583496 10.606 0.583496 11.2 0.583496 11.376V33.0239C0.583496 33.2659 0.583496 33.7939 0.583496 34.1899C0.609246 35.1391 0.685736 36.0863 0.812663 37.0279C0.983778 37.8527 1.26894 38.6517 1.66058 39.4039C2.07018 40.2199 2.62027 40.9637 3.28766 41.6039C3.96121 42.2371 4.73461 42.7642 5.57933 43.1659C6.36391 43.5346 7.19627 43.8009 8.05433 43.9579C9.02585 44.0976 10.0056 44.1785 10.9877 44.1999H35.9897C36.9784 44.1752 37.9652 44.1018 38.946 43.9799C39.8051 43.8157 40.6375 43.5419 41.421 43.1659C42.271 42.7727 43.0457 42.2446 43.7127 41.6039C44.3722 40.9573 44.9213 40.2149 45.3397 39.4039C45.7237 38.6507 46.0012 37.8517 46.1647 37.0279C46.3103 36.0953 46.3945 35.1548 46.4168 34.2119C46.4168 33.7939 46.4168 33.2659 46.4168 33.0239V11.376C46.4168 11.2 46.4168 10.606 46.4168 10.21ZM24.0272 37.5999C21.2751 37.5869 18.5711 36.9058 16.1668 35.6199L7.4585 37.8199L9.75016 29.6359C8.2723 27.2521 7.48138 24.5339 7.4585 21.7599C7.46762 18.6424 8.4375 15.5971 10.246 13.0077C12.0545 10.4183 14.6207 8.40052 17.6214 7.20853C20.6221 6.01653 23.9232 5.70363 27.1088 6.30922C30.2944 6.9148 33.2222 8.41181 35.5232 10.6117C37.8243 12.8115 39.3959 15.6159 40.0399 18.6716C40.684 21.7272 40.3718 24.8975 39.1426 27.7831C37.9134 30.6688 35.8223 33.1407 33.1325 34.8876C30.4427 36.6345 27.2746 37.5782 24.0272 37.5999V37.5999ZM24.0272 8.71395C21.5976 8.74064 19.2188 9.38491 17.1329 10.5812C15.047 11.7774 13.3285 13.483 12.1525 15.5241C10.9765 17.5652 10.3848 19.8691 10.4379 22.2011C10.4909 24.5331 11.1866 26.81 12.4543 28.7999L12.7752 29.3059L11.4002 34.1239L16.6252 32.7599L17.1293 33.0459C19.2138 34.2246 21.5852 34.8545 24.0043 34.8719V34.8719C27.6511 34.8719 31.1484 33.4812 33.727 31.0058C36.3057 28.5303 37.7543 25.1728 37.7543 21.6719C37.7543 18.1711 36.3057 14.8136 33.727 12.3381C31.1484 9.86266 27.6511 8.47195 24.0043 8.47195L24.0272 8.71395ZM32.0481 27.4579C31.7479 27.9386 31.346 28.3534 30.8684 28.6755C30.3907 28.9976 29.8479 29.2199 29.2752 29.3279C28.4193 29.4781 27.5382 29.4253 26.7085 29.1739C25.9278 28.9396 25.1626 28.6605 24.4168 28.3379C21.5837 26.9732 19.1676 24.9266 17.4043 22.3979C16.4461 21.2264 15.8648 19.812 15.7314 18.3279C15.7178 17.7115 15.8392 17.0991 16.088 16.5306C16.3367 15.9622 16.7071 15.4502 17.1752 15.0279C17.313 14.8779 17.4822 14.7573 17.6717 14.6739C17.8611 14.5905 18.0667 14.5463 18.2752 14.544H18.9168C19.1689 14.544 19.5127 14.5439 19.8335 15.2259C20.1543 15.9079 21.0022 17.9539 21.1168 18.1519C21.1731 18.2575 21.2025 18.3744 21.2025 18.4929C21.2025 18.6115 21.1731 18.7284 21.1168 18.834C21.0155 19.073 20.8764 19.2956 20.7043 19.494C20.4981 19.736 20.2689 20.0219 20.0856 20.1979C19.9022 20.3739 19.6731 20.5939 19.9022 20.9899C20.5258 22.0002 21.2976 22.9189 22.1939 23.7179C23.17 24.5459 24.286 25.2081 25.4939 25.6759C25.9064 25.8739 26.1585 25.8519 26.3877 25.6759C26.6168 25.4999 27.4189 24.5319 27.6939 24.1359C27.9689 23.7399 28.2439 23.8059 28.6106 23.9379C28.9772 24.0699 31.0168 25.0159 31.4293 25.2139C31.8418 25.4119 32.0939 25.4999 32.2085 25.6759C32.3079 26.2517 32.2527 26.8423 32.0481 27.3919V27.4579Z" fill="white"/>
</svg>
